# xmcd
#
# Track frame offsets: 
#        150
#        10929
#        22067
#        31202
#        42126
#        52805
#        63463
#        73498
#        83251
#        93931
#        107887
#        120904
#        133127
#        145114
#        156056
#        169097
#        180768
#        189135
#        209213
#        220540
#
# Disc length: 3071 seconds
#
# Revision: 1
# Processed by: cddbd v1.5.2PL0 Copyright (c) Steve Scherf et al.
# Submitted via: ExactAudioCopy v0.95a4
#
DISCID=060bfd14
DTITLE=Screamin' Jay Hawkins - Weird And Then Some! [CD2]
DYEAR=2010
DGENRE=Blues
TTITLE0=You Ain't Foolin' Me
TTITLE1=I Put A Spell On You
TTITLE2=You Made Me Love You (I Didn't Want To Do It)
TTITLE3=Yellow Cat
TTITLE4=Hong Kong
TTITLE5=Darling Please Forgive Me
TTITLE6=Frenzy
TTITLE7=Person To Person
TTITLE8=There's Something Wrong With You
TTITLE9=Alligator Wine
TTITLE10=Orange Coloured Sky
TTITLE11=Give Me Back My Boots And Saddle
TTITLE12=Temptation
TTITLE13=I Love Paris
TTITLE14=If You Are But A Dream
TTITLE15=Deep Purple
TTITLE16=Swing Low Sweet Chariot
TTITLE17=Ol' Man River
TTITLE18=Armpit
TTITLE19=The Past
EXTD=
EXTT0=
EXTT1=
EXTT2=
EXTT3=
EXTT4=
EXTT5=
EXTT6=
EXTT7=
EXTT8=
EXTT9=
EXTT10=
EXTT11=
EXTT12=
EXTT13=
EXTT14=
EXTT15=
EXTT16=
EXTT17=
EXTT18=
EXTT19=
PLAYORDER=
